<svg width="530" height="106" fill="none" xmlns="http://www.w3.org/2000/svg"><path d="M116.164.344h8.989l4.149 1.033 3.112 1.72 1.728 1.377 2.42 3.442 1.729 3.785.691 3.098V50.59l-.345 8.26-1.038 3.441-1.728 3.442-3.457 3.441-3.803 2.065-2.421.689-2.765.344h-5.186l-5.186-1.033-2.42-1.72-1.729-1.033-2.766-2.753-2.074-4.13-.692-2.41-.345-3.785V14.11l1.383-4.474 2.42-4.13 3.457-3.097 3.112-1.377 2.765-.688Zm-60.502 0h18.67l4.148 1.033 3.803 2.065 3.112 3.097 2.766 5.162 1.382 5.85v9.982l-1.383 5.162-2.074 4.13-3.803 3.785-1.728 1.377 3.457 8.604 5.531 13.422 1.038 3.097v1.721l-2.42 2.065-2.42 1.033-4.495.344-2.074-1.721-2.075-4.818-1.728-4.13-5.532-13.766-1.729-3.442h-4.494l-.346 26.156-1.037 1.032-3.112.689h-4.84l-2.074-1.033-.692-1.032V3.442l.692-1.721L53.934.688l1.728-.344Zm191.533 0h19.706l4.149 1.033 2.766 1.72 3.457 3.442 2.075 3.442 1.383 3.441.691 2.41.346 3.097v6.883l-1.037 5.85-1.383 3.442-2.766 3.441-2.766 2.41-.691.688.691 3.441 3.457 8.26 4.149 9.98 1.037 2.754v2.753l-1.728 1.72-2.766 1.378-1.383.344h-3.112l-1.728-1.033-1.729-3.785-2.42-5.851-2.766-6.54-3.803-9.635-.346-1.033h-4.84l-.346 25.468-1.728 1.72-1.729.689h-5.186l-2.074-1.033-1.037-1.376V2.754l.691-1.377 2.766-1.033Zm-231.983 0h7.26l5.186 1.377 2.766 2.065 2.074 1.72 2.42 3.786 1.383 5.162.346 2.066v3.097l-1.037 1.72-1.729.689-5.186.344-2.765-1.377-.692-1.032-1.383-5.506-1.729-1.721-1.728-.344h-2.42l-2.42.688-2.42 2.753-.692 1.377-.345 3.441V53l.69 3.442 1.384 2.065 1.383 1.032 4.148.688 3.803-.688 1.038-1.032 1.383-3.098v-8.604l-.346-.688-4.149-.344-1.729-1.721-.345-.688-.346-5.507 1.383-3.441.691-.345h14.52l1.384 1.377V57.13l-.692 4.474-1.728 3.442-3.803 4.13-4.149 2.064-2.766.689-3.457.344h-4.149l-3.803-1.033-4.149-2.065-3.457-2.753-2.074-2.409-1.729-3.786L0 55.753V18.93l.346-4.474 1.383-4.13 2.074-3.442 2.42-2.409 4.84-2.753L15.212.344Zm151.429 0h6.914l4.149 1.033 4.494 2.409 2.766 3.441 1.729 3.786 1.037 3.786.346 5.162-1.729 1.72-2.074.69h-4.149l-3.457-1.377-.346-.689-.692-4.474-1.382-2.065-1.383-1.032-1.729-.344h-2.42l-3.112 1.376-1.728 2.754-.346 1.376v36.48l1.383 3.442 2.766 2.065.691.344h2.42l3.458-1.032 1.037-1.377.691-1.72.692-3.786.691-1.377 3.457-.688h2.766l2.766.688 1.383 1.032v4.819l-.692 3.785-3.111 5.851-2.766 2.753-4.84 2.41-3.803.688h-4.84l-5.186-1.377-3.457-1.72-3.458-3.098-2.42-3.786-1.728-4.818-.346-3.441V18.24l1.037-5.506 1.383-3.442 3.111-3.786 2.421-2.064 3.111-1.721 4.495-1.377Z" fill="#623275"/><path d="M454.977.344h8.298l4.148 1.377 3.112 2.065 2.766 3.097 1.728 4.13.346 1.033v3.097l-1.729 1.377-1.382.344h-5.186l-2.42-1.033-1.383-1.72-1.383-1.377-.692-.344h-3.803l-2.766 1.72-.691 1.377v4.474l2.766 5.507 4.84 5.162 2.766 2.409 4.84 4.818 3.803 5.163 1.729 3.785 1.383 5.163v5.85l-1.729 5.163-2.074 2.753-3.112 3.097-5.532 2.753-5.531.689-5.186-1.033-4.495-2.409-2.074-1.72-3.112-4.819-1.382-3.441-.346-4.474L443.222 53l1.383-.344h5.532l2.766 1.377 1.383 3.097 1.383 2.065 1.728 1.032 2.42-.344 2.42-1.032 1.729-2.754V53l-1.729-4.13-2.42-3.097-12.1-12.046-3.457-5.162-1.729-4.13-.691-2.753v-7.227l1.728-5.851 2.075-3.098 3.111-2.753 3.457-1.72 2.766-.689Z" fill="#6C407E"/><path d="M205.362 0h8.643l13.138.344 1.383 1.377.345 1.032v6.195l-1.037 2.753-.691.345h-15.212l.346 18.24 10.371.344 1.038 1.032 1.037 2.41v4.473l-.692 3.442-.345.344-3.112.344h-8.297v17.208l1.037.344h13.829l1.037 1.033 1.037 3.097v3.786l-1.037 3.097-1.729 1.033h-23.855l-1.728-.689-.692-3.097V2.065l1.729-1.72L205.362 0Z" fill="#623375"/><path d="M485.747.344h42.524l1.383 1.72.346 1.033v5.507l-1.037 2.409-1.037.688-3.458.345h-11.409v58.162l-.345 1.032-1.729.689-2.074.344h-3.458l-3.457-1.033-.346-.688-.345-5.507v-53h-10.718l-4.149-.344-1.383-1.376-.691-2.065V4.818l.691-3.441.692-1.033Z" fill="#6C407E"/><path d="m300.091 0 4.495.688 1.383.689 2.074 4.818 4.149 10.325 2.074 5.506.692.344-.346-1.377 2.42-5.506 2.766-7.227 1.728-4.474 1.383-2.754 2.42-.688h3.803l2.766 1.033 1.383 1.72-.346 2.754-3.803 9.292-3.457 8.26-3.803 9.292-1.037 2.409-.346 33.039-.346 2.409-2.074 1.377-1.729.344h-4.84l-2.766-1.377-.345-.344-.346-33.727-1.729-4.819-8.643-20.649-2.42-5.85v-2.41l1.729-1.72 1.728-1.033L300.091 0Z" fill="#623375"/><path d="m382.029 1.032 5.186.345 1.383.688.345 58.162 15.212.344 1.037 3.442v3.441l-.691 3.786-1.383 1.033h-23.855l-2.074-1.033-.346-2.065-.346-12.045V41.299l.346-39.578 5.186-.689Z" fill="#623275"/><path d="M422.479 0h3.111l3.112 1.377.691 1.376v67.11l-1.728 1.721-2.42.689h-4.495l-2.766-1.033-.691-1.032V2.409l1.729-1.72L422.479 0Z" fill="#6C407E"/><path d="m119.967 12.046 3.112.344 2.074 1.032 1.383 1.72 1.037 4.475v33.039l-1.037 4.474-2.766 2.753-3.111.688-1.729-.344-2.074-1.376-1.383-1.721-.692-2.065-.345-2.41v-34.07l1.037-3.442 1.729-2.065 2.765-1.032Z" fill="#FEFEFE"/><path d="m417.984 15.143 1.729.688.691 9.292.346 2.41 1.383-.345 1.729-.344.345.688.346 4.13.692.345v3.097l.345.688.346 2.065v-6.539l.692-1.032h1.382l.346 1.72.346 20.994v7.227l-.346 4.13-1.383 1.377-2.074-1.721-1.383.688-3.803.345-.346-2.066-.345 1.721.691 1.721-.346 1.72-1.383-.343V15.143Z" fill="#623275"/><path d="M63.96 11.701h8.643l2.766 1.033 1.728 1.72.692 2.41v8.948l-1.383 3.785-1.037 1.721-2.075.689h-9.68l-.346-.345V12.39l.692-.689Zm192.224 0h7.606l4.149 1.033 1.383 1.72.691 3.098v8.26l-1.383 3.785-1.729 2.065-.691.345h-10.372l-.346-.689V12.39l.692-.689Z" fill="#FEFEFE"/><path d="M511.676 12.39h.692l.346 3.097V71.24l-2.766.344.346-2.409v-2.753l-.692-1.72v-5.507L509.256 53v-5.85l.346-3.442v-4.13l.346-5.85v-8.949l.346-2.409v-6.195l.345-2.753 1.037-.344v-.688Z" fill="#623275"/><path d="m347.802 87.416 1.037 1.032 5.186 12.39 1.383 3.097v1.721l-1.383-.344-2.075-4.13v-.688h-7.606l-.691-.345-.692 2.065-2.074 3.786h-1.037l.691-3.097 3.112-7.228 2.42-5.506 1.037-2.41.692-.343Z" fill="#4E21AC"/><path d="M117.547 88.104h4.495l3.457 1.377 1.037 1.376-.346 1.033-4.494-1.721h-4.149l-2.074 1.032-1.729 2.065-.691 1.377v3.441l1.383 2.754 1.728 1.72 2.766 1.033 3.112-.344 1.728-1.033h.692l.346-4.818-2.421.344h-3.111l-.346-1.72.346-.345h6.569l.691 1.033.346 3.441-.692 2.409-1.728 1.721-2.42 1.033h-4.84l-3.458-2.065-2.074-2.753-.692-2.065v-3.786l1.729-3.442 2.42-2.065 2.42-1.032Z" fill="#4D20AF"/><path d="m397.586 63.669.692.344v2.065l2.074.344.692 2.753-.346.344v1.721l2.766.344.346-1.032.345 1.032-1.037.689h-23.855l-1.037-.689 1.383-.688.345-1.032.692.344-.346-1.033 1.037-1.032h1.383v.688l1.037.344v.689l1.037 1.032 1.729.344 2.075-.344v-.688l1.037-.344-.346-.689 1.383-.344v-.688l4.494-.344h.692v-1.033l-1.383-.688V64.7l2.766-.344.345-.688ZM300.091 0l4.495.688v2.065h-.692l1.729 3.442-1.037 3.097-1.383.689-1.383-.689v2.065l-.692-.344-.345 1.377-.692.344-1.037-1.033-1.383-1.72.346-2.754-1.037-.344-.692-5.162 2.42-1.377L300.091 0Z" fill="#6C407E"/><path d="M152.466 87.76h9.334v1.376l-.345.345h-7.261v6.194h6.915l-.346 1.721-3.457.344h-3.112v6.195h7.606l.346 1.377-.346.344h-8.643l-.691-.688V87.76Z" fill="#5326A6"/><path d="M503.379 40.266h.691l.692 8.948v3.442l-.346 2.065v7.571l-1.037 1.377v5.506l-.691 1.377-.692-1.377V46.461l1.037-2.065.346-3.097v-1.033Z" fill="#623275"/><path d="M276.582 87.76h10.372l.691.344-.346 1.032-.691.345h-3.803v15.831h-1.729l-.345-15.487-4.149-.344-.346-1.377.346-.344Z" fill="#5528A3"/><path d="M185.656 87.76h10.371v1.032l-1.037.689h-3.803v15.831h-1.383l-.345-15.487-3.803-.344-.692-1.033.692-.688Z" fill="#4B1EB1"/><path d="m412.107 87.76 1.383.344.346 15.487 5.531.344v1.377l-1.383.344h-5.531l-.692-1.721V88.104l.346-.344Z" fill="#5428A3"/><path d="M380.3 88.104h1.383l.346 15.831h5.877v1.033l-1.383.688h-5.531l-.692-.344-.346-2.065V91.89l.346-3.786Z" fill="#4F22AB"/><path d="m382.029 3.786 2.074.344 1.037.688-.346 2.41h-.691v3.44l-.691.69h-2.075L380.3 9.635l-1.037-1.376-.692-1.377.692-2.753 2.766-.344Z" fill="#6D417F"/><path d="M347.456 90.857h.691l3.112 7.572v.688h-6.915l.346-1.72 2.42-6.196.346-.344Z" fill="#FEFEFE"/><path d="M325.329.344h3.803l-1.037.344v1.033h.692v1.032l.691.344.346 1.721-.692 1.377h-.691l-.346 1.376-2.42 1.033-1.037-1.033.346-1.032h-.692l-.345-1.72.691-1.033h.691l-.345-2.41.345-1.032Z" fill="#6C407E"/><path d="M250.652 88.104h1.383v17.208l-1.728-.344v-14.11l.345-2.754Z" fill="#5326A5"/><path d="M388.252 2.065h.346l.345 58.162 15.212.344-.345.689h-14.521l-1.037-.689V2.065Z" fill="#6D417F"/><path d="M515.479.688h13.138l1.037 1.377v2.753l-1.383-.344-1.383-1.72v-.69l-10.717.345-1.729-.344v-.688h1.037V.688Zm-87.814 6.195.345 1.033.346.688v6.195l-.346 3.441-1.037-.344h-1.037v-5.162l.346-1.721-.692-.344.692-1.721.346-1.377 1.037-.688Z" fill="#623275"/><path d="m204.671 71.24 22.818.344-1.038.689h-23.855l-.691-.689 2.766-.344Zm51.859-27.876h3.457l.691.688-4.84.344-.346 25.468-.691.688v-.688l-.691-.345.691-1.032V49.214l-.346-1.72v-2.065l.692-1.721 1.383-.344Zm54.279 24.09 1.383.345v.688l2.074-.344.692.688-.346 2.065.346.344 3.111.344v.345l-1.729.344h-4.84l-1.037-.689 1.383-.344.692.344-.346-1.72-1.037-1.033-.346-1.377Z" fill="#6D417F"/><path d="M527.926 7.916h1.728V9.98l-1.037 1.376h-5.877l.345-1.032 2.075-.689.691.345v-.689l2.075-1.376Z" fill="#623275"/><path d="M295.943 2.41h.691l.692 3.785-.346.688 1.383.344-.346 2.754.691.688-.345 1.377-.692-.689-2.42-5.85v-2.41l.692-.688Z" fill="#643577"/><path d="m467.769 38.89 2.42.344 3.112 4.474.345 2.065h-1.037v-.689l-1.383-.688-1.037-2.753-1.728-1.377-.692-1.376Z" fill="#643476"/><path d="M495.427.688h8.643l-.345 1.033.691.344-.691.344-5.186-.344-.692-.688v.688l-1.383-.688-1.037-.689Z" fill="#623275"/><path d="m469.152 3.442 1.383.344 2.766 3.097 1.383 3.098v1.72l-.692-1.032-1.037-2.41-1.383-.688-.346-1.376-1.037-.344-1.037-1.721v-.688Z" fill="#643577"/><path d="M422.825.344h3.803l2.074 1.033v3.097l-1.729-.344-.345-2.065-2.075-.688V.688h-1.728V.344Z" fill="#633376"/><path d="M322.218 9.292h.346l1.037 3.442 1.037.688v.688l-1.729.689-.691-.345-.692-1.72.346-3.098.346-.344Zm-65.343 1.377h4.149l3.112.344 1.383 1.033h-9.681l-.691.344.691-1.377 1.037-.344Z" fill="#6D417F"/><path d="M404.501 62.292h.346l.345 1.721v3.441l-.345 2.41-1.383-.345V67.11l.346-.688.691-4.13ZM256.53 43.364h3.457l.691.688-4.84.344-.346 4.474h-1.037V45.43l.692-1.721 1.383-.344Z" fill="#6C407E"/><path d="m179.432 20.994 4.495.344 1.729.344-1.383.688h-4.149l-2.074-.688 1.382-.688Zm128.611-9.637 1.383 1.033-1.037 2.753-1.037-.689v-2.753l.691-.344Zm71.22-1.032 1.037.344 1.383 2.753-1.383.688v-.688h-.691l-.346-3.097ZM247.886 71.24l3.112.344 1.037.689h-5.186l-1.037-.689 2.074-.344Z" fill="#6D417F"/><path d="m451.866 16.175 1.037.345.346.688v2.409l-.346-.688-1.383-.345.346-2.409Z" fill="#623275"/><path d="M385.14 11.013h.346v2.753l-.692 2.41h-.691l-.346-1.721 1.383-3.442Zm-264.827 85.35 1.037.345 1.729.344v-.688l1.729.688v.344l-2.421.344h-3.111l.346-.688.691-.688Z" fill="#6D417F"/><path d="m445.643 65.046 1.728 1.72 2.766 2.065-1.037.344-2.766-2.065-.691-1.032v-1.032Z" fill="#653678"/><path d="M503.379 31.662h.346l.345 3.098-.345 4.13-1.037-1.377h.691l-.346-2.065V33.04l.346-1.377Z" fill="#623275"/><path d="m466.386 68.831.346 1.377-2.074 1.032h-2.075l.346-.688 2.766-1.033.691-.688Z" fill="#653677"/><path d="M501.65 65.39h.346l.346 4.13.691 1.376-1.037.344-.346-.688V65.39ZM187.384 14.799h.346l.346 5.162-.346-1.032h-.692V15.83l.346-1.032Z" fill="#6D417F"/></svg>
